<svg xmlns="http://www.w3.org/2000/svg" viewBox="-116 -228 232 266" style="display:block;overflow:visible"><g id="MICHI_ROOT" transform="translate(0 0)"><g id="MICHI_TAIL" transform="translate(0 0) rotate(0 36.5 -14)"><path d="M38.13 -11.61C71.29 -9.95 79.58 -36.47 67.97 -56.37" fill="none" stroke="#05070A" stroke-width="12.43" stroke-linecap="round" stroke-linejoin="round"/></g><g id="MICHI_PAWS_BACK"></g><g id="MICHI_BODY" transform="translate(0 0) rotate(0) scale(1 1)"><path d="M-38.13 0C-38.13 -56.37 -23.21 -89.53 0 -89.53C23.21 -89.53 38.13 -56.37 38.13 0Z" fill="#05070A"/></g><g id="MICHI_HEAD" transform="translate(0 0) rotate(0 0 -94.5) translate(0 0)"><g id="MICHI_EAR_L" transform="translate(0 0) rotate(0 -19.07 -161.65)"><path d="M-36.47 -150.87L-43.11 -198.95L-1.66 -172.42Z" fill="#05070A"/></g><g id="MICHI_EAR_R" transform="translate(0 0) rotate(0 19.07 -161.65)"><path d="M36.47 -150.87L43.11 -198.95L1.66 -172.42Z" fill="#05070A"/></g><rect id="MICHI_HEAD_SHAPE" x="-41.45" y="-175.74" width="82.9" height="76.27" rx="24.87" fill="#05070A"/><g id="MICHI_WHISKERS_L"><path d="M-36.47 -125.17L-66.32 -131.8" fill="none" stroke="#E8C46A" stroke-opacity="0.502" stroke-width="2.49" stroke-linecap="round"/><path d="M-36.47 -118.54L-64.66 -109.42" fill="none" stroke="#E8C46A" stroke-opacity="0.502" stroke-width="2.49" stroke-linecap="round"/></g><g id="MICHI_WHISKERS_R"><path d="M36.47 -125.17L66.32 -131.8" fill="none" stroke="#E8C46A" stroke-opacity="0.502" stroke-width="2.49" stroke-linecap="round"/><path d="M36.47 -118.54L64.66 -109.42" fill="none" stroke="#E8C46A" stroke-opacity="0.502" stroke-width="2.49" stroke-linecap="round"/></g><g id="MICHI_EYE_L"><clipPath id="michi-master-eyeL"><circle cx="-18.24" cy="-135.95" r="11.61"/></clipPath><g clip-path="url(#michi-master-eyeL)"><circle id="MICHI_IRIS_L" cx="-18.24" cy="-135.95" r="11.61" fill="#E8C46A"/><ellipse id="MICHI_PUPIL_L" cx="-18.24" cy="-135.95" rx="2.99" ry="7.46" fill="#05070A"/><circle id="MICHI_HIGHLIGHT_L" cx="-21.55" cy="-140.09" r="2.32" fill="#FFFFFF"/><path id="MICHI_LID_BOTTOM_L" d="M-37.84 -124.34Q-18.24 -124.34 1.37 -124.34L1.37 -104.34L-37.84 -104.34Z" fill="#05070A"/><rect id="MICHI_LID_TOP_L" x="-37.84" y="-187.55" width="39.21" height="40" fill="#05070A" transform="rotate(0 -18.24 -147.55)"/></g></g><g id="MICHI_EYE_R"><clipPath id="michi-master-eyeR"><circle cx="18.24" cy="-135.95" r="11.61"/></clipPath><g clip-path="url(#michi-master-eyeR)"><circle id="MICHI_IRIS_R" cx="18.24" cy="-135.95" r="11.61" fill="#E8C46A"/><ellipse id="MICHI_PUPIL_R" cx="18.24" cy="-135.95" rx="2.99" ry="7.46" fill="#05070A"/><circle id="MICHI_HIGHLIGHT_R" cx="14.93" cy="-140.09" r="2.32" fill="#FFFFFF"/><path id="MICHI_LID_BOTTOM_R" d="M-1.37 -124.34Q18.24 -124.34 37.85 -124.34L37.85 -104.34L-1.37 -104.34Z" fill="#05070A"/><rect id="MICHI_LID_TOP_R" x="-1.37" y="-187.55" width="39.21" height="40" fill="#05070A" transform="rotate(0 18.24 -147.55)"/></g></g><path id="MICHI_NOSE" d="M0 -114.4L6.22 -121.86L-6.22 -121.86Z" fill="#E8C46A" fill-opacity="0.6"/><g id="MICHI_MOUTH"><path d="M0 -114.4C-4.97 -109.42 -9.67 -108.87 -14.09 -112.74" fill="none" stroke="#E8C46A" stroke-opacity="0.502" stroke-width="2.98" stroke-linecap="round"/><path d="M0 -114.4C4.97 -109.42 9.67 -108.87 14.09 -112.74" fill="none" stroke="#E8C46A" stroke-opacity="0.502" stroke-width="2.98" stroke-linecap="round"/></g><g id="MICHI_TEARS_L"></g><g id="MICHI_TEARS_R"></g></g><g id="MICHI_PAWS_FRONT"></g></g></svg>