<svg xmlns="http://www.w3.org/2000/svg" viewBox="424 458 122 93"><path d="M500.23 542.64C513.45 543.3 516.76 532.72 512.13 524.79" fill="none" stroke="#8C8577" stroke-width="4.96" stroke-linecap="round" stroke-linejoin="miter"/><path d="M469.83 547.26C469.83 524.79 475.78 511.57 485.03 511.57C494.29 511.57 500.23 524.79 500.23 547.26L469.83 547.26" fill="#8C8577"/><path d="M468.69 520.95L472.68 520.95C472.83 520.95 472.99 520.98 473.13 521.04C473.28 521.1 473.41 521.19 473.52 521.3C473.63 521.42 473.72 521.54 473.78 521.69C473.84 521.84 473.87 521.99 473.87 522.15C473.87 522.31 473.84 522.46 473.78 522.61C473.72 522.75 473.63 522.88 473.52 522.99C473.41 523.11 473.28 523.19 473.13 523.25C472.99 523.31 472.83 523.34 472.68 523.34L468.69 523.34C468.53 523.34 468.38 523.31 468.23 523.25C468.08 523.19 467.96 523.11 467.84 522.99C467.73 522.88 467.64 522.75 467.58 522.61C467.52 522.46 467.49 522.31 467.49 522.15C467.49 521.99 467.52 521.84 467.58 521.69C467.64 521.54 467.73 521.42 467.84 521.3C467.96 521.19 468.08 521.1 468.23 521.04C468.38 520.98 468.53 520.95 468.69 520.95" fill="#5E5A52"/><path d="M497.39 520.95L501.38 520.95C501.54 520.95 501.69 520.98 501.84 521.04C501.98 521.1 502.11 521.19 502.22 521.3C502.34 521.42 502.42 521.54 502.48 521.69C502.54 521.84 502.57 521.99 502.57 522.15C502.57 522.31 502.54 522.46 502.48 522.61C502.42 522.75 502.34 522.88 502.22 522.99C502.11 523.11 501.98 523.19 501.84 523.25C501.69 523.31 501.54 523.34 501.38 523.34L497.39 523.34C497.23 523.34 497.08 523.31 496.93 523.25C496.79 523.19 496.66 523.11 496.55 522.99C496.43 522.88 496.35 522.75 496.29 522.61C496.23 522.46 496.2 522.31 496.2 522.15C496.2 521.99 496.23 521.84 496.29 521.69C496.35 521.54 496.43 521.42 496.55 521.3C496.66 521.19 496.79 521.1 496.93 521.04C497.08 520.98 497.23 520.95 497.39 520.95" fill="#5E5A52"/><path d="M468.69 527.33L472.68 527.33C472.83 527.33 472.99 527.36 473.13 527.42C473.28 527.48 473.41 527.57 473.52 527.68C473.63 527.79 473.72 527.92 473.78 528.07C473.84 528.22 473.87 528.37 473.87 528.53C473.87 528.69 473.84 528.84 473.78 528.98C473.72 529.13 473.63 529.26 473.52 529.37C473.41 529.48 473.28 529.57 473.13 529.63C472.99 529.69 472.83 529.72 472.68 529.72L468.69 529.72C468.53 529.72 468.38 529.69 468.23 529.63C468.08 529.57 467.96 529.48 467.84 529.37C467.73 529.26 467.64 529.13 467.58 528.98C467.52 528.84 467.49 528.69 467.49 528.53C467.49 528.37 467.52 528.22 467.58 528.07C467.64 527.92 467.73 527.79 467.84 527.68C467.96 527.57 468.08 527.48 468.23 527.42C468.38 527.36 468.53 527.33 468.69 527.33" fill="#5E5A52"/><path d="M497.39 527.33L501.38 527.33C501.54 527.33 501.69 527.36 501.84 527.42C501.98 527.48 502.11 527.57 502.22 527.68C502.34 527.79 502.42 527.92 502.48 528.07C502.54 528.22 502.57 528.37 502.57 528.53C502.57 528.69 502.54 528.84 502.48 528.98C502.42 529.13 502.34 529.26 502.22 529.37C502.11 529.48 501.98 529.57 501.84 529.63C501.69 529.69 501.54 529.72 501.38 529.72L497.39 529.72C497.23 529.72 497.08 529.69 496.93 529.63C496.79 529.57 496.66 529.48 496.55 529.37C496.43 529.26 496.35 529.13 496.29 528.98C496.23 528.84 496.2 528.69 496.2 528.53C496.2 528.37 496.23 528.22 496.29 528.07C496.35 527.92 496.43 527.79 496.55 527.68C496.66 527.57 496.79 527.48 496.93 527.42C497.08 527.36 497.23 527.33 497.39 527.33" fill="#5E5A52"/><path d="M468.69 533.71L472.68 533.71C472.83 533.71 472.99 533.74 473.13 533.8C473.28 533.86 473.41 533.95 473.52 534.06C473.63 534.17 473.72 534.3 473.78 534.45C473.84 534.59 473.87 534.75 473.87 534.91C473.87 535.06 473.84 535.22 473.78 535.36C473.72 535.51 473.63 535.64 473.52 535.75C473.41 535.86 473.28 535.95 473.13 536.01C472.99 536.07 472.83 536.1 472.68 536.1L468.69 536.1C468.53 536.1 468.38 536.07 468.23 536.01C468.08 535.95 467.96 535.86 467.84 535.75C467.73 535.64 467.64 535.51 467.58 535.36C467.52 535.22 467.49 535.06 467.49 534.91C467.49 534.75 467.52 534.59 467.58 534.45C467.64 534.3 467.73 534.17 467.84 534.06C467.96 533.95 468.08 533.86 468.23 533.8C468.38 533.74 468.53 533.71 468.69 533.71" fill="#5E5A52"/><path d="M497.39 533.71L501.38 533.71C501.54 533.71 501.69 533.74 501.84 533.8C501.98 533.86 502.11 533.95 502.22 534.06C502.34 534.17 502.42 534.3 502.48 534.45C502.54 534.59 502.57 534.75 502.57 534.91C502.57 535.06 502.54 535.22 502.48 535.36C502.42 535.51 502.34 535.64 502.22 535.75C502.11 535.86 501.98 535.95 501.84 536.01C501.69 536.07 501.54 536.1 501.38 536.1L497.39 536.1C497.23 536.1 497.08 536.07 496.93 536.01C496.79 535.95 496.66 535.86 496.55 535.75C496.43 535.64 496.35 535.51 496.29 535.36C496.23 535.22 496.2 535.06 496.2 534.91C496.2 534.75 496.23 534.59 496.29 534.45C496.35 534.3 496.43 534.17 496.55 534.06C496.66 533.95 496.79 533.86 496.93 533.8C497.08 533.74 497.23 533.71 497.39 533.71" fill="#5E5A52"/><path d="M471.95 488.86L464.12 471.17L482.92 476.78L471.95 488.86" fill="#8C8577"/><path d="M498.12 488.86L505.95 471.17L487.15 476.78L498.12 488.86" fill="#8C8577"/><path d="M478.42 477.2L491.64 477.2C492.29 477.2 492.94 477.27 493.58 477.4C494.22 477.52 494.84 477.71 495.44 477.96C496.04 478.21 496.61 478.51 497.15 478.88C497.69 479.24 498.19 479.65 498.65 480.11C499.11 480.57 499.52 481.07 499.89 481.61C500.25 482.15 500.55 482.72 500.8 483.33C501.05 483.93 501.24 484.55 501.37 485.19C501.49 485.82 501.56 486.47 501.56 487.12L501.56 497.7C501.56 498.35 501.49 498.99 501.37 499.63C501.24 500.27 501.05 500.89 500.8 501.49C500.55 502.09 500.25 502.66 499.89 503.2C499.52 503.74 499.11 504.25 498.65 504.71C498.19 505.17 497.69 505.58 497.15 505.94C496.61 506.3 496.04 506.61 495.44 506.86C494.84 507.1 494.22 507.29 493.58 507.42C492.94 507.55 492.29 507.61 491.64 507.61L478.42 507.61C477.77 507.61 477.13 507.55 476.49 507.42C475.85 507.29 475.23 507.1 474.63 506.86C474.03 506.61 473.46 506.3 472.92 505.94C472.37 505.58 471.87 505.17 471.41 504.71C470.95 504.25 470.54 503.74 470.18 503.2C469.82 502.66 469.51 502.09 469.26 501.49C469.01 500.89 468.83 500.27 468.7 499.63C468.57 498.99 468.51 498.35 468.51 497.7L468.51 487.12C468.51 486.47 468.57 485.82 468.7 485.19C468.83 484.55 469.01 483.93 469.26 483.33C469.51 482.72 469.82 482.15 470.18 481.61C470.54 481.07 470.95 480.57 471.41 480.11C471.87 479.65 472.37 479.24 472.92 478.88C473.46 478.51 474.03 478.21 474.63 477.96C475.23 477.71 475.85 477.52 476.49 477.4C477.13 477.27 477.77 477.2 478.42 477.2" fill="#8C8577"/><path d="M481.84 475.51C481.98 475.51 482.1 475.53 482.23 475.58C482.35 475.63 482.46 475.71 482.55 475.8C482.64 475.89 482.71 476 482.76 476.12C482.82 476.24 482.84 476.37 482.84 476.5L482.84 479.69C482.84 479.82 482.82 479.95 482.76 480.07C482.71 480.2 482.64 480.3 482.55 480.4C482.46 480.49 482.35 480.56 482.23 480.61C482.1 480.66 481.98 480.69 481.84 480.69C481.71 480.69 481.58 480.66 481.46 480.61C481.34 480.56 481.23 480.49 481.14 480.4C481.05 480.3 480.97 480.2 480.92 480.07C480.87 479.95 480.85 479.82 480.85 479.69L480.85 476.5C480.85 476.37 480.87 476.24 480.92 476.12C480.97 476 481.05 475.89 481.14 475.8C481.23 475.71 481.34 475.63 481.46 475.58C481.58 475.53 481.71 475.51 481.84 475.51" fill="#5E5A52"/><path d="M485.03 475.51C485.17 475.51 485.29 475.53 485.41 475.58C485.54 475.63 485.64 475.71 485.74 475.8C485.83 475.89 485.9 476 485.95 476.12C486 476.24 486.03 476.37 486.03 476.5L486.03 481.69C486.03 481.82 486 481.95 485.95 482.07C485.9 482.19 485.83 482.3 485.74 482.39C485.64 482.48 485.54 482.56 485.41 482.61C485.29 482.66 485.17 482.68 485.03 482.68C484.9 482.68 484.77 482.66 484.65 482.61C484.53 482.56 484.42 482.48 484.33 482.39C484.24 482.3 484.16 482.19 484.11 482.07C484.06 481.95 484.04 481.82 484.04 481.69L484.04 476.5C484.04 476.37 484.06 476.24 484.11 476.12C484.16 476 484.24 475.89 484.33 475.8C484.42 475.71 484.53 475.63 484.65 475.58C484.77 475.53 484.9 475.51 485.03 475.51" fill="#5E5A52"/><path d="M488.22 475.51C488.35 475.51 488.48 475.53 488.6 475.58C488.73 475.63 488.83 475.71 488.93 475.8C489.02 475.89 489.09 476 489.14 476.12C489.19 476.24 489.22 476.37 489.22 476.5L489.22 479.69C489.22 479.82 489.19 479.95 489.14 480.07C489.09 480.2 489.02 480.3 488.93 480.4C488.83 480.49 488.73 480.56 488.6 480.61C488.48 480.66 488.35 480.69 488.22 480.69C488.09 480.69 487.96 480.66 487.84 480.61C487.72 480.56 487.61 480.49 487.52 480.4C487.42 480.3 487.35 480.2 487.3 480.07C487.25 479.95 487.23 479.82 487.23 479.69L487.23 476.5C487.23 476.37 487.25 476.24 487.3 476.12C487.35 476 487.42 475.89 487.52 475.8C487.61 475.71 487.72 475.63 487.84 475.58C487.96 475.53 488.09 475.51 488.22 475.51" fill="#5E5A52"/><path d="M470.49 497.36L458.59 494.72" fill="none" stroke="#F3EFE6" stroke-width="1" stroke-opacity="0.900" stroke-linecap="round" stroke-linejoin="miter"/><path d="M470.49 500.01L459.26 503.64" fill="none" stroke="#F3EFE6" stroke-width="1" stroke-opacity="0.900" stroke-linecap="round" stroke-linejoin="miter"/><path d="M499.57 497.36L511.47 494.72" fill="none" stroke="#F3EFE6" stroke-width="1" stroke-opacity="0.900" stroke-linecap="round" stroke-linejoin="miter"/><path d="M499.57 500.01L510.81 503.64" fill="none" stroke="#F3EFE6" stroke-width="1" stroke-opacity="0.900" stroke-linecap="round" stroke-linejoin="miter"/><path d="M482.78 493.07C482.78 493.4 482.75 493.72 482.69 494.05C482.62 494.37 482.53 494.68 482.4 494.99C482.28 495.29 482.12 495.58 481.94 495.86C481.76 496.13 481.55 496.39 481.31 496.62C481.08 496.85 480.83 497.06 480.55 497.24C480.28 497.43 479.99 497.58 479.68 497.71C479.38 497.83 479.07 497.93 478.74 497.99C478.42 498.06 478.09 498.09 477.76 498.09C477.43 498.09 477.11 498.06 476.78 497.99C476.46 497.93 476.14 497.83 475.84 497.71C475.53 497.58 475.25 497.43 474.97 497.24C474.7 497.06 474.44 496.85 474.21 496.62C473.98 496.39 473.77 496.13 473.59 495.86C473.4 495.58 473.25 495.29 473.12 494.99C473 494.68 472.9 494.37 472.84 494.05C472.77 493.72 472.74 493.4 472.74 493.07C472.74 492.74 472.77 492.41 472.84 492.09C472.9 491.76 473 491.45 473.12 491.14C473.25 490.84 473.4 490.55 473.59 490.28C473.77 490 473.98 489.75 474.21 489.52C474.44 489.28 474.7 489.07 474.97 488.89C475.25 488.71 475.53 488.55 475.84 488.43C476.14 488.3 476.46 488.21 476.78 488.14C477.11 488.08 477.43 488.04 477.76 488.04C478.09 488.04 478.42 488.08 478.74 488.14C479.07 488.21 479.38 488.3 479.68 488.43C479.99 488.55 480.28 488.71 480.55 488.89C480.83 489.07 481.08 489.28 481.31 489.52C481.55 489.75 481.76 490 481.94 490.28C482.12 490.55 482.28 490.84 482.4 491.14C482.53 491.45 482.62 491.76 482.69 492.09C482.75 492.41 482.78 492.74 482.78 493.07" fill="#E3DDD0"/><path d="M479.04 493.07C479.04 493.49 479.01 493.9 478.94 494.29C478.88 494.68 478.78 495.02 478.66 495.32C478.54 495.62 478.41 495.85 478.25 496.01C478.09 496.18 477.93 496.26 477.76 496.26C477.59 496.26 477.43 496.18 477.27 496.01C477.12 495.85 476.98 495.62 476.86 495.32C476.74 495.02 476.65 494.68 476.58 494.29C476.52 493.9 476.49 493.49 476.49 493.07C476.49 492.64 476.52 492.24 476.58 491.85C476.65 491.46 476.74 491.11 476.86 490.81C476.98 490.51 477.12 490.28 477.27 490.12C477.43 489.96 477.59 489.88 477.76 489.88C477.93 489.88 478.09 489.96 478.25 490.12C478.41 490.28 478.54 490.51 478.66 490.81C478.78 491.11 478.88 491.46 478.94 491.85C479.01 492.24 479.04 492.64 479.04 493.07" fill="#05070A"/><path d="M477.36 491.31C477.36 491.58 477.27 491.8 477.08 491.99C476.9 492.18 476.67 492.27 476.41 492.27C476.14 492.27 475.92 492.18 475.73 491.99C475.54 491.8 475.45 491.58 475.45 491.31C475.45 491.05 475.54 490.82 475.73 490.64C475.92 490.45 476.14 490.36 476.41 490.36C476.67 490.36 476.9 490.45 477.08 490.64C477.27 490.82 477.36 491.05 477.36 491.31" fill="#F3EFE6"/><path d="M465.58 475.68L479.83 471.59L484.89 489.22L470.63 493.3L465.58 475.68" fill="#8C8577"/><path d="M497.33 493.07C497.33 493.4 497.3 493.72 497.23 494.05C497.17 494.37 497.07 494.68 496.95 494.99C496.82 495.29 496.66 495.58 496.48 495.86C496.3 496.13 496.09 496.39 495.86 496.62C495.62 496.85 495.37 497.06 495.1 497.24C494.82 497.43 494.53 497.58 494.23 497.71C493.92 497.83 493.61 497.93 493.28 497.99C492.96 498.06 492.63 498.09 492.3 498.09C491.97 498.09 491.65 498.06 491.32 497.99C491 497.93 490.69 497.83 490.38 497.71C490.08 497.58 489.79 497.43 489.51 497.24C489.24 497.06 488.99 496.85 488.75 496.62C488.52 496.39 488.31 496.13 488.13 495.86C487.94 495.58 487.79 495.29 487.66 494.99C487.54 494.68 487.44 494.37 487.38 494.05C487.31 493.72 487.28 493.4 487.28 493.07C487.28 492.74 487.31 492.41 487.38 492.09C487.44 491.76 487.54 491.45 487.66 491.14C487.79 490.84 487.94 490.55 488.13 490.28C488.31 490 488.52 489.75 488.75 489.52C488.99 489.28 489.24 489.07 489.51 488.89C489.79 488.71 490.08 488.55 490.38 488.43C490.69 488.3 491 488.21 491.32 488.14C491.65 488.08 491.97 488.04 492.3 488.04C492.63 488.04 492.96 488.08 493.28 488.14C493.61 488.21 493.92 488.3 494.23 488.43C494.53 488.55 494.82 488.71 495.1 488.89C495.37 489.07 495.62 489.28 495.86 489.52C496.09 489.75 496.3 490 496.48 490.28C496.66 490.55 496.82 490.84 496.95 491.14C497.07 491.45 497.17 491.76 497.23 492.09C497.3 492.41 497.33 492.74 497.33 493.07" fill="#E3DDD0"/><path d="M493.58 493.07C493.58 493.49 493.55 493.9 493.48 494.29C493.42 494.68 493.33 495.02 493.21 495.32C493.09 495.62 492.95 495.85 492.79 496.01C492.64 496.18 492.47 496.26 492.3 496.26C492.14 496.26 491.97 496.18 491.82 496.01C491.66 495.85 491.52 495.62 491.4 495.32C491.28 495.02 491.19 494.68 491.13 494.29C491.06 493.9 491.03 493.49 491.03 493.07C491.03 492.64 491.06 492.24 491.13 491.85C491.19 491.46 491.28 491.11 491.4 490.81C491.52 490.51 491.66 490.28 491.82 490.12C491.97 489.96 492.14 489.88 492.3 489.88C492.47 489.88 492.64 489.96 492.79 490.12C492.95 490.28 493.09 490.51 493.21 490.81C493.33 491.11 493.42 491.46 493.48 491.85C493.55 492.24 493.58 492.64 493.58 493.07" fill="#05070A"/><path d="M491.91 491.31C491.91 491.58 491.81 491.8 491.63 491.99C491.44 492.18 491.21 492.27 490.95 492.27C490.68 492.27 490.46 492.18 490.27 491.99C490.09 491.8 489.99 491.58 489.99 491.31C489.99 491.05 490.09 490.82 490.27 490.64C490.46 490.45 490.68 490.36 490.95 490.36C491.21 490.36 491.44 490.45 491.63 490.64C491.81 490.82 491.91 491.05 491.91 491.31" fill="#F3EFE6"/><path d="M490.23 471.59L504.49 475.68L499.43 493.3L485.18 489.22L490.23 471.59" fill="#8C8577"/><path d="M473.99 483.96L480.7 483.02C480.83 483 480.96 483 481.09 483.04C481.22 483.07 481.34 483.13 481.44 483.21C481.55 483.29 481.63 483.38 481.7 483.5C481.77 483.61 481.81 483.73 481.83 483.86C481.85 483.99 481.84 484.12 481.81 484.25C481.77 484.38 481.72 484.5 481.64 484.6C481.56 484.71 481.46 484.79 481.35 484.86C481.23 484.93 481.11 484.97 480.98 484.99L474.27 485.93C474.14 485.95 474.01 485.94 473.88 485.91C473.75 485.88 473.64 485.82 473.53 485.74C473.43 485.66 473.34 485.57 473.27 485.45C473.21 485.34 473.16 485.22 473.14 485.08C473.13 484.95 473.13 484.82 473.17 484.7C473.2 484.57 473.26 484.45 473.34 484.35C473.41 484.24 473.51 484.15 473.63 484.09C473.74 484.02 473.86 483.98 473.99 483.96" fill="#F3EFE6"/><path d="M489.36 483.02L496.07 483.96C496.2 483.98 496.33 484.02 496.44 484.09C496.55 484.15 496.65 484.24 496.73 484.35C496.81 484.45 496.87 484.57 496.9 484.7C496.93 484.82 496.94 484.95 496.92 485.08C496.9 485.22 496.86 485.34 496.79 485.45C496.73 485.57 496.64 485.66 496.54 485.74C496.43 485.82 496.31 485.88 496.18 485.91C496.06 485.94 495.93 485.95 495.8 485.93L489.09 484.99C488.95 484.97 488.83 484.93 488.72 484.86C488.6 484.79 488.51 484.71 488.43 484.6C488.35 484.5 488.29 484.38 488.26 484.25C488.23 484.12 488.22 483.99 488.24 483.86C488.26 483.73 488.3 483.61 488.37 483.5C488.43 483.38 488.52 483.29 488.62 483.21C488.73 483.13 488.85 483.07 488.97 483.04C489.1 483 489.23 483 489.36 483.02" fill="#F3EFE6"/><path d="M485.03 501.66L487.51 498.68L482.55 498.68L485.03 501.66" fill="#05070A" fill-opacity="0.600"/><path d="M481.45 505.8C483.84 503.94 486.23 503.94 488.62 505.8" fill="none" stroke="#05070A" stroke-width="1.2" stroke-opacity="0.600" stroke-linecap="round" stroke-linejoin="miter"/><path d="M484.14 493.07C484.14 493.49 484.1 493.9 484.02 494.31C483.94 494.72 483.81 495.12 483.65 495.51C483.49 495.9 483.3 496.26 483.07 496.61C482.83 496.96 482.57 497.28 482.27 497.58C481.98 497.87 481.65 498.14 481.31 498.37C480.96 498.6 480.59 498.8 480.2 498.96C479.82 499.12 479.42 499.24 479.01 499.32C478.6 499.4 478.18 499.45 477.76 499.45C477.34 499.45 476.93 499.4 476.52 499.32C476.11 499.24 475.71 499.12 475.32 498.96C474.93 498.8 474.57 498.6 474.22 498.37C473.87 498.14 473.55 497.87 473.25 497.58C472.96 497.28 472.69 496.96 472.46 496.61C472.23 496.26 472.03 495.9 471.87 495.51C471.71 495.12 471.59 494.72 471.51 494.31C471.42 493.9 471.38 493.49 471.38 493.07C471.38 492.65 471.42 492.23 471.51 491.82C471.59 491.41 471.71 491.01 471.87 490.63C472.03 490.24 472.23 489.87 472.46 489.52C472.69 489.18 472.96 488.85 473.25 488.56C473.55 488.26 473.87 488 474.22 487.76C474.57 487.53 474.93 487.33 475.32 487.17C475.71 487.01 476.11 486.89 476.52 486.81C476.93 486.73 477.34 486.69 477.76 486.69C478.18 486.69 478.6 486.73 479.01 486.81C479.42 486.89 479.82 487.01 480.2 487.17C480.59 487.33 480.96 487.53 481.31 487.76C481.65 488 481.98 488.26 482.27 488.56C482.57 488.85 482.83 489.18 483.07 489.52C483.3 489.87 483.49 490.24 483.65 490.63C483.81 491.01 483.94 491.41 484.02 491.82C484.1 492.23 484.14 492.65 484.14 493.07" fill="none" stroke="#05070A" stroke-width="1.28" stroke-linecap="butt" stroke-linejoin="miter"/><path d="M498.68 493.07C498.68 493.49 498.64 493.9 498.56 494.31C498.48 494.72 498.36 495.12 498.2 495.51C498.04 495.9 497.84 496.26 497.61 496.61C497.38 496.96 497.11 497.28 496.81 497.58C496.52 497.87 496.2 498.14 495.85 498.37C495.5 498.6 495.13 498.8 494.75 498.96C494.36 499.12 493.96 499.24 493.55 499.32C493.14 499.4 492.72 499.45 492.3 499.45C491.89 499.45 491.47 499.4 491.06 499.32C490.65 499.24 490.25 499.12 489.86 498.96C489.48 498.8 489.11 498.6 488.76 498.37C488.41 498.14 488.09 497.87 487.79 497.58C487.5 497.28 487.23 496.96 487 496.61C486.77 496.26 486.57 495.9 486.41 495.51C486.25 495.12 486.13 494.72 486.05 494.31C485.97 493.9 485.93 493.49 485.93 493.07C485.93 492.65 485.97 492.23 486.05 491.82C486.13 491.41 486.25 491.01 486.41 490.63C486.57 490.24 486.77 489.87 487 489.52C487.23 489.18 487.5 488.85 487.79 488.56C488.09 488.26 488.41 488 488.76 487.76C489.11 487.53 489.48 487.33 489.86 487.17C490.25 487.01 490.65 486.89 491.06 486.81C491.47 486.73 491.89 486.69 492.3 486.69C492.72 486.69 493.14 486.73 493.55 486.81C493.96 486.89 494.36 487.01 494.75 487.17C495.13 487.33 495.5 487.53 495.85 487.76C496.2 488 496.52 488.26 496.81 488.56C497.11 488.85 497.38 489.18 497.61 489.52C497.84 489.87 498.04 490.24 498.2 490.63C498.36 491.01 498.48 491.41 498.56 491.82C498.64 492.23 498.68 492.65 498.68 493.07" fill="none" stroke="#05070A" stroke-width="1.28" stroke-linecap="butt" stroke-linejoin="miter"/><path d="M484.12 492.65L485.95 492.65" fill="none" stroke="#05070A" stroke-width="1.28" stroke-linecap="butt" stroke-linejoin="miter"/></svg>