<svg xmlns="http://www.w3.org/2000/svg" viewBox="39 458 121 93"><path d="M114.73 542.64C127.95 543.3 131.25 532.72 126.62 524.79" fill="none" stroke="#5F6664" stroke-width="4.96" stroke-linecap="round" stroke-linejoin="miter"/><path d="M84.33 547.26C84.33 524.79 90.27 511.57 99.53 511.57C108.78 511.57 114.73 524.79 114.73 547.26L84.33 547.26" fill="#5F6664"/><path d="M83.18 520.95L87.17 520.95C87.33 520.95 87.48 520.98 87.63 521.04C87.77 521.1 87.9 521.19 88.01 521.3C88.13 521.42 88.21 521.54 88.27 521.69C88.33 521.84 88.37 521.99 88.37 522.15C88.37 522.31 88.33 522.46 88.27 522.61C88.21 522.75 88.13 522.88 88.01 522.99C87.9 523.11 87.77 523.19 87.63 523.25C87.48 523.31 87.33 523.34 87.17 523.34L83.18 523.34C83.02 523.34 82.87 523.31 82.73 523.25C82.58 523.19 82.45 523.11 82.34 522.99C82.22 522.88 82.14 522.75 82.08 522.61C82.02 522.46 81.99 522.31 81.99 522.15C81.99 521.99 82.02 521.84 82.08 521.69C82.14 521.54 82.22 521.42 82.34 521.3C82.45 521.19 82.58 521.1 82.73 521.04C82.87 520.98 83.02 520.95 83.18 520.95" fill="#8C8577"/><path d="M111.89 520.95L115.87 520.95C116.03 520.95 116.18 520.98 116.33 521.04C116.48 521.1 116.61 521.19 116.72 521.3C116.83 521.42 116.92 521.54 116.98 521.69C117.04 521.84 117.07 521.99 117.07 522.15C117.07 522.31 117.04 522.46 116.98 522.61C116.92 522.75 116.83 522.88 116.72 522.99C116.61 523.11 116.48 523.19 116.33 523.25C116.18 523.31 116.03 523.34 115.87 523.34L111.89 523.34C111.73 523.34 111.57 523.31 111.43 523.25C111.28 523.19 111.15 523.11 111.04 522.99C110.93 522.88 110.84 522.75 110.78 522.61C110.72 522.46 110.69 522.31 110.69 522.15C110.69 521.99 110.72 521.84 110.78 521.69C110.84 521.54 110.93 521.42 111.04 521.3C111.15 521.19 111.28 521.1 111.43 521.04C111.57 520.98 111.73 520.95 111.89 520.95" fill="#8C8577"/><path d="M83.18 527.33L87.17 527.33C87.33 527.33 87.48 527.36 87.63 527.42C87.77 527.48 87.9 527.57 88.01 527.68C88.13 527.79 88.21 527.92 88.27 528.07C88.33 528.22 88.37 528.37 88.37 528.53C88.37 528.69 88.33 528.84 88.27 528.98C88.21 529.13 88.13 529.26 88.01 529.37C87.9 529.48 87.77 529.57 87.63 529.63C87.48 529.69 87.33 529.72 87.17 529.72L83.18 529.72C83.02 529.72 82.87 529.69 82.73 529.63C82.58 529.57 82.45 529.48 82.34 529.37C82.22 529.26 82.14 529.13 82.08 528.98C82.02 528.84 81.99 528.69 81.99 528.53C81.99 528.37 82.02 528.22 82.08 528.07C82.14 527.92 82.22 527.79 82.34 527.68C82.45 527.57 82.58 527.48 82.73 527.42C82.87 527.36 83.02 527.33 83.18 527.33" fill="#8C8577"/><path d="M111.89 527.33L115.87 527.33C116.03 527.33 116.18 527.36 116.33 527.42C116.48 527.48 116.61 527.57 116.72 527.68C116.83 527.79 116.92 527.92 116.98 528.07C117.04 528.22 117.07 528.37 117.07 528.53C117.07 528.69 117.04 528.84 116.98 528.98C116.92 529.13 116.83 529.26 116.72 529.37C116.61 529.48 116.48 529.57 116.33 529.63C116.18 529.69 116.03 529.72 115.87 529.72L111.89 529.72C111.73 529.72 111.57 529.69 111.43 529.63C111.28 529.57 111.15 529.48 111.04 529.37C110.93 529.26 110.84 529.13 110.78 528.98C110.72 528.84 110.69 528.69 110.69 528.53C110.69 528.37 110.72 528.22 110.78 528.07C110.84 527.92 110.93 527.79 111.04 527.68C111.15 527.57 111.28 527.48 111.43 527.42C111.57 527.36 111.73 527.33 111.89 527.33" fill="#8C8577"/><path d="M83.18 533.71L87.17 533.71C87.33 533.71 87.48 533.74 87.63 533.8C87.77 533.86 87.9 533.95 88.01 534.06C88.13 534.17 88.21 534.3 88.27 534.45C88.33 534.59 88.37 534.75 88.37 534.91C88.37 535.06 88.33 535.22 88.27 535.36C88.21 535.51 88.13 535.64 88.01 535.75C87.9 535.86 87.77 535.95 87.63 536.01C87.48 536.07 87.33 536.1 87.17 536.1L83.18 536.1C83.02 536.1 82.87 536.07 82.73 536.01C82.58 535.95 82.45 535.86 82.34 535.75C82.22 535.64 82.14 535.51 82.08 535.36C82.02 535.22 81.99 535.06 81.99 534.91C81.99 534.75 82.02 534.59 82.08 534.45C82.14 534.3 82.22 534.17 82.34 534.06C82.45 533.95 82.58 533.86 82.73 533.8C82.87 533.74 83.02 533.71 83.18 533.71" fill="#8C8577"/><path d="M111.89 533.71L115.87 533.71C116.03 533.71 116.18 533.74 116.33 533.8C116.48 533.86 116.61 533.95 116.72 534.06C116.83 534.17 116.92 534.3 116.98 534.45C117.04 534.59 117.07 534.75 117.07 534.91C117.07 535.06 117.04 535.22 116.98 535.36C116.92 535.51 116.83 535.64 116.72 535.75C116.61 535.86 116.48 535.95 116.33 536.01C116.18 536.07 116.03 536.1 115.87 536.1L111.89 536.1C111.73 536.1 111.57 536.07 111.43 536.01C111.28 535.95 111.15 535.86 111.04 535.75C110.93 535.64 110.84 535.51 110.78 535.36C110.72 535.22 110.69 535.06 110.69 534.91C110.69 534.75 110.72 534.59 110.78 534.45C110.84 534.3 110.93 534.17 111.04 534.06C111.15 533.95 111.28 533.86 111.43 533.8C111.57 533.74 111.73 533.71 111.89 533.71" fill="#8C8577"/><path d="M89.16 507.4L109.89 507.4C110.1 507.4 110.31 507.44 110.5 507.52C110.7 507.6 110.87 507.72 111.02 507.87C111.17 508.02 111.28 508.19 111.37 508.38C111.45 508.58 111.49 508.78 111.49 508.99C111.49 509.2 111.45 509.41 111.37 509.6C111.28 509.8 111.17 509.97 111.02 510.12C110.87 510.27 110.7 510.39 110.5 510.47C110.31 510.55 110.1 510.59 109.89 510.59L89.16 510.59C88.95 510.59 88.75 510.55 88.55 510.47C88.36 510.39 88.18 510.27 88.03 510.12C87.89 509.97 87.77 509.8 87.69 509.6C87.61 509.41 87.57 509.2 87.57 508.99C87.57 508.78 87.61 508.58 87.69 508.38C87.77 508.19 87.89 508.02 88.03 507.87C88.18 507.72 88.36 507.6 88.55 507.52C88.75 507.44 88.95 507.4 89.16 507.4" fill="#9A3B2E"/><path d="M102.32 512.98C102.32 513.35 102.25 513.71 102.11 514.05C101.96 514.39 101.76 514.69 101.5 514.95C101.24 515.21 100.94 515.42 100.6 515.56C100.25 515.7 99.9 515.77 99.53 515.77C99.16 515.77 98.8 515.7 98.46 515.56C98.12 515.42 97.82 515.21 97.55 514.95C97.29 514.69 97.09 514.39 96.95 514.05C96.81 513.71 96.74 513.35 96.74 512.98C96.74 512.61 96.81 512.25 96.95 511.91C97.09 511.57 97.29 511.27 97.55 511.01C97.82 510.74 98.12 510.54 98.46 510.4C98.8 510.26 99.16 510.19 99.53 510.19C99.9 510.19 100.25 510.26 100.6 510.4C100.94 510.54 101.24 510.74 101.5 511.01C101.76 511.27 101.96 511.57 102.11 511.91C102.25 512.25 102.32 512.61 102.32 512.98" fill="#7A5518"/><path d="M84.99 487.12L82.34 467.95L98.87 478.53L84.99 487.12" fill="#5F6664"/><path d="M114.07 487.12L116.71 467.95L100.19 478.53L114.07 487.12" fill="#5F6664"/><path d="M92.92 477.2L106.14 477.2C106.79 477.2 107.43 477.27 108.07 477.4C108.71 477.52 109.33 477.71 109.93 477.96C110.53 478.21 111.1 478.51 111.65 478.88C112.19 479.24 112.69 479.65 113.15 480.11C113.61 480.57 114.02 481.07 114.38 481.61C114.74 482.15 115.05 482.72 115.3 483.33C115.55 483.93 115.73 484.55 115.86 485.19C115.99 485.82 116.05 486.47 116.05 487.12L116.05 497.7C116.05 498.35 115.99 498.99 115.86 499.63C115.73 500.27 115.55 500.89 115.3 501.49C115.05 502.09 114.74 502.66 114.38 503.2C114.02 503.74 113.61 504.25 113.15 504.71C112.69 505.17 112.19 505.58 111.65 505.94C111.1 506.3 110.53 506.61 109.93 506.86C109.33 507.1 108.71 507.29 108.07 507.42C107.43 507.55 106.79 507.61 106.14 507.61L92.92 507.61C92.27 507.61 91.62 507.55 90.98 507.42C90.35 507.29 89.73 507.1 89.12 506.86C88.52 506.61 87.95 506.3 87.41 505.94C86.87 505.58 86.37 505.17 85.91 504.71C85.45 504.25 85.04 503.74 84.67 503.2C84.31 502.66 84.01 502.09 83.76 501.49C83.51 500.89 83.32 500.27 83.19 499.63C83.07 498.99 83 498.35 83 497.7L83 487.12C83 486.47 83.07 485.82 83.19 485.19C83.32 484.55 83.51 483.93 83.76 483.33C84.01 482.72 84.31 482.15 84.67 481.61C85.04 481.07 85.45 480.57 85.91 480.11C86.37 479.65 86.87 479.24 87.41 478.88C87.95 478.51 88.52 478.21 89.12 477.96C89.73 477.71 90.35 477.52 90.98 477.4C91.62 477.27 92.27 477.2 92.92 477.2" fill="#5F6664"/><path d="M96.34 475.51C96.47 475.51 96.6 475.53 96.72 475.58C96.84 475.63 96.95 475.71 97.04 475.8C97.14 475.89 97.21 476 97.26 476.12C97.31 476.24 97.33 476.37 97.33 476.5L97.33 479.69C97.33 479.82 97.31 479.95 97.26 480.07C97.21 480.2 97.14 480.3 97.04 480.4C96.95 480.49 96.84 480.56 96.72 480.61C96.6 480.66 96.47 480.69 96.34 480.69C96.21 480.69 96.08 480.66 95.96 480.61C95.83 480.56 95.73 480.49 95.63 480.4C95.54 480.3 95.47 480.2 95.42 480.07C95.37 479.95 95.34 479.82 95.34 479.69L95.34 476.5C95.34 476.37 95.37 476.24 95.42 476.12C95.47 476 95.54 475.89 95.63 475.8C95.73 475.71 95.83 475.63 95.96 475.58C96.08 475.53 96.21 475.51 96.34 475.51" fill="#8C8577"/><path d="M99.53 475.51C99.66 475.51 99.79 475.53 99.91 475.58C100.03 475.63 100.14 475.71 100.23 475.8C100.33 475.89 100.4 476 100.45 476.12C100.5 476.24 100.52 476.37 100.52 476.5L100.52 481.69C100.52 481.82 100.5 481.95 100.45 482.07C100.4 482.19 100.33 482.3 100.23 482.39C100.14 482.48 100.03 482.56 99.91 482.61C99.79 482.66 99.66 482.68 99.53 482.68C99.4 482.68 99.27 482.66 99.15 482.61C99.02 482.56 98.92 482.48 98.82 482.39C98.73 482.3 98.66 482.19 98.61 482.07C98.56 481.95 98.53 481.82 98.53 481.69L98.53 476.5C98.53 476.37 98.56 476.24 98.61 476.12C98.66 476 98.73 475.89 98.82 475.8C98.92 475.71 99.02 475.63 99.15 475.58C99.27 475.53 99.4 475.51 99.53 475.51" fill="#8C8577"/><path d="M102.72 475.51C102.85 475.51 102.98 475.53 103.1 475.58C103.22 475.63 103.33 475.71 103.42 475.8C103.51 475.89 103.59 476 103.64 476.12C103.69 476.24 103.71 476.37 103.71 476.5L103.71 479.69C103.71 479.82 103.69 479.95 103.64 480.07C103.59 480.2 103.51 480.3 103.42 480.4C103.33 480.49 103.22 480.56 103.1 480.61C102.98 480.66 102.85 480.69 102.72 480.69C102.58 480.69 102.46 480.66 102.34 480.61C102.21 480.56 102.11 480.49 102.01 480.4C101.92 480.3 101.85 480.2 101.8 480.07C101.75 479.95 101.72 479.82 101.72 479.69L101.72 476.5C101.72 476.37 101.75 476.24 101.8 476.12C101.85 476 101.92 475.89 102.01 475.8C102.11 475.71 102.21 475.63 102.34 475.58C102.46 475.53 102.58 475.51 102.72 475.51" fill="#8C8577"/><path d="M84.99 497.36L73.09 494.72" fill="none" stroke="#F3EFE6" stroke-width="1" stroke-opacity="0.500" stroke-linecap="round" stroke-linejoin="miter"/><path d="M84.99 500.01L73.75 503.64" fill="none" stroke="#F3EFE6" stroke-width="1" stroke-opacity="0.500" stroke-linecap="round" stroke-linejoin="miter"/><path d="M114.07 497.36L125.97 494.72" fill="none" stroke="#F3EFE6" stroke-width="1" stroke-opacity="0.500" stroke-linecap="round" stroke-linejoin="miter"/><path d="M114.07 500.01L125.3 503.64" fill="none" stroke="#F3EFE6" stroke-width="1" stroke-opacity="0.500" stroke-linecap="round" stroke-linejoin="miter"/><path d="M97.28 493.07C97.28 493.4 97.25 493.72 97.18 494.05C97.12 494.37 97.02 494.68 96.9 494.99C96.77 495.29 96.62 495.58 96.43 495.86C96.25 496.13 96.04 496.39 95.81 496.62C95.57 496.85 95.32 497.06 95.05 497.24C94.77 497.43 94.48 497.58 94.18 497.71C93.87 497.83 93.56 497.93 93.24 497.99C92.91 498.06 92.59 498.09 92.26 498.09C91.93 498.09 91.6 498.06 91.28 497.99C90.95 497.93 90.64 497.83 90.33 497.71C90.03 497.58 89.74 497.43 89.47 497.24C89.19 497.06 88.94 496.85 88.7 496.62C88.47 496.39 88.26 496.13 88.08 495.86C87.9 495.58 87.74 495.29 87.62 494.99C87.49 494.68 87.39 494.37 87.33 494.05C87.27 493.72 87.23 493.4 87.23 493.07C87.23 492.74 87.27 492.41 87.33 492.09C87.39 491.76 87.49 491.45 87.62 491.14C87.74 490.84 87.9 490.55 88.08 490.28C88.26 490 88.47 489.75 88.7 489.52C88.94 489.28 89.19 489.07 89.47 488.89C89.74 488.71 90.03 488.55 90.33 488.43C90.64 488.3 90.95 488.21 91.28 488.14C91.6 488.08 91.93 488.04 92.26 488.04C92.59 488.04 92.91 488.08 93.24 488.14C93.56 488.21 93.87 488.3 94.18 488.43C94.48 488.55 94.77 488.71 95.05 488.89C95.32 489.07 95.57 489.28 95.81 489.52C96.04 489.75 96.25 490 96.43 490.28C96.62 490.55 96.77 490.84 96.9 491.14C97.02 491.45 97.12 491.76 97.18 492.09C97.25 492.41 97.28 492.74 97.28 493.07" fill="#E1BEA3"/><path d="M93.53 493.07C93.53 493.49 93.5 493.9 93.43 494.29C93.37 494.68 93.28 495.02 93.16 495.32C93.04 495.62 92.9 495.85 92.74 496.01C92.59 496.18 92.43 496.26 92.26 496.26C92.09 496.26 91.92 496.18 91.77 496.01C91.61 495.85 91.47 495.62 91.35 495.32C91.23 495.02 91.14 494.68 91.08 494.29C91.01 493.9 90.98 493.49 90.98 493.07C90.98 492.64 91.01 492.24 91.08 491.85C91.14 491.46 91.23 491.11 91.35 490.81C91.47 490.51 91.61 490.28 91.77 490.12C91.92 489.96 92.09 489.88 92.26 489.88C92.43 489.88 92.59 489.96 92.74 490.12C92.9 490.28 93.04 490.51 93.16 490.81C93.28 491.11 93.37 491.46 93.43 491.85C93.5 492.24 93.53 492.64 93.53 493.07" fill="#05070A"/><path d="M91.86 491.31C91.86 491.58 91.76 491.8 91.58 491.99C91.39 492.18 91.16 492.27 90.9 492.27C90.64 492.27 90.41 492.18 90.22 491.99C90.04 491.8 89.94 491.58 89.94 491.31C89.94 491.05 90.04 490.82 90.22 490.64C90.41 490.45 90.64 490.36 90.9 490.36C91.16 490.36 91.39 490.45 91.58 490.64C91.76 490.82 91.86 491.05 91.86 491.31" fill="#F3EFE6"/><path d="M84.84 469.71H99.67V488.04H84.84Z" fill="#5F6664"/><path d="M111.82 493.07C111.82 493.4 111.79 493.72 111.73 494.05C111.66 494.37 111.57 494.68 111.44 494.99C111.31 495.29 111.16 495.58 110.98 495.86C110.79 496.13 110.58 496.39 110.35 496.62C110.12 496.85 109.86 497.06 109.59 497.24C109.32 497.43 109.03 497.58 108.72 497.71C108.42 497.83 108.1 497.93 107.78 497.99C107.46 498.06 107.13 498.09 106.8 498.09C106.47 498.09 106.14 498.06 105.82 497.99C105.5 497.93 105.18 497.83 104.88 497.71C104.57 497.58 104.28 497.43 104.01 497.24C103.73 497.06 103.48 496.85 103.25 496.62C103.01 496.39 102.81 496.13 102.62 495.86C102.44 495.58 102.28 495.29 102.16 494.99C102.03 494.68 101.94 494.37 101.87 494.05C101.81 493.72 101.78 493.4 101.78 493.07C101.78 492.74 101.81 492.41 101.87 492.09C101.94 491.76 102.03 491.45 102.16 491.14C102.28 490.84 102.44 490.55 102.62 490.28C102.81 490 103.01 489.75 103.25 489.52C103.48 489.28 103.73 489.07 104.01 488.89C104.28 488.71 104.57 488.55 104.88 488.43C105.18 488.3 105.5 488.21 105.82 488.14C106.14 488.08 106.47 488.04 106.8 488.04C107.13 488.04 107.46 488.08 107.78 488.14C108.1 488.21 108.42 488.3 108.72 488.43C109.03 488.55 109.32 488.71 109.59 488.89C109.86 489.07 110.12 489.28 110.35 489.52C110.58 489.75 110.79 490 110.98 490.28C111.16 490.55 111.31 490.84 111.44 491.14C111.57 491.45 111.66 491.76 111.73 492.09C111.79 492.41 111.82 492.74 111.82 493.07" fill="#E1BEA3"/><path d="M108.07 493.07C108.07 493.49 108.04 493.9 107.98 494.29C107.91 494.68 107.82 495.02 107.7 495.32C107.58 495.62 107.44 495.85 107.29 496.01C107.13 496.18 106.97 496.26 106.8 496.26C106.63 496.26 106.47 496.18 106.31 496.01C106.15 495.85 106.02 495.62 105.9 495.32C105.78 495.02 105.68 494.68 105.62 494.29C105.56 493.9 105.52 493.49 105.52 493.07C105.52 492.64 105.56 492.24 105.62 491.85C105.68 491.46 105.78 491.11 105.9 490.81C106.02 490.51 106.15 490.28 106.31 490.12C106.47 489.96 106.63 489.88 106.8 489.88C106.97 489.88 107.13 489.96 107.29 490.12C107.44 490.28 107.58 490.51 107.7 490.81C107.82 491.11 107.91 491.46 107.98 491.85C108.04 492.24 108.07 492.64 108.07 493.07" fill="#05070A"/><path d="M106.4 491.31C106.4 491.58 106.31 491.8 106.12 491.99C105.93 492.18 105.71 492.27 105.44 492.27C105.18 492.27 104.95 492.18 104.77 491.99C104.58 491.8 104.49 491.58 104.49 491.31C104.49 491.05 104.58 490.82 104.77 490.64C104.95 490.45 105.18 490.36 105.44 490.36C105.71 490.36 105.93 490.45 106.12 490.64C106.31 490.82 106.4 491.05 106.4 491.31" fill="#F3EFE6"/><path d="M99.38 469.71H114.21V488.04H99.38Z" fill="#5F6664"/><path d="M99.53 501.66L102.01 498.68L97.05 498.68L99.53 501.66" fill="#E1BEA3" fill-opacity="0.600"/><path d="M99.53 501.66C97.55 503.64 95.67 503.86 93.91 502.32" fill="none" stroke="#F3EFE6" stroke-width="1.2" stroke-opacity="0.600" stroke-linecap="round" stroke-linejoin="miter"/><path d="M99.53 501.66C101.51 503.64 103.38 503.86 105.14 502.32" fill="none" stroke="#F3EFE6" stroke-width="1.2" stroke-opacity="0.600" stroke-linecap="round" stroke-linejoin="miter"/></svg>